<svg width="24" height="24" viewBox="0 0 24 24" fill="none" xmlns="http://www.w3.org/2000/svg">
<g clip-path="url(#clip0_10_131)">
<path d="M7.00015 8.00088V7.00088C6.99985 5.89228 7.36798 4.81501 8.04667 3.93845C8.72536 3.06189 9.67613 2.43573 10.7495 2.15843C11.8228 1.88114 12.9579 1.96842 13.9763 2.40656C14.9946 2.8447 15.8385 3.60885 16.3752 4.57888L18.1242 3.60788C17.3724 2.25019 16.1909 1.1808 14.7652 0.56779C13.3395 -0.0452162 11.7505 -0.167074 10.248 0.221372C8.74553 0.609817 7.41472 1.48654 6.46478 2.71373C5.51484 3.94091 4.99964 5.44898 5.00015 7.00088V8.00088H2.00015V21.0009C2.00015 21.7965 2.31622 22.5596 2.87883 23.1222C3.44144 23.6848 4.2045 24.0009 5.00015 24.0009H19.0002C19.7958 24.0009 20.5589 23.6848 21.1215 23.1222C21.6841 22.5596 22.0002 21.7965 22.0002 21.0009V8.00088H7.00015ZM20.0002 21.0009C20.0002 21.2661 19.8948 21.5204 19.7073 21.708C19.5197 21.8955 19.2654 22.0009 19.0002 22.0009H5.00015C4.73494 22.0009 4.48058 21.8955 4.29305 21.708C4.10551 21.5204 4.00015 21.2661 4.00015 21.0009V10.0009H20.0002V21.0009Z" fill="#374957"/>
<path d="M13.0002 14.0006H11.0002V18.0006H13.0002V14.0006Z" fill="#374957"/>
</g>
<defs>
<clipPath id="clip0_10_131">
<rect width="24" height="24" fill="white"/>
</clipPath>
</defs>
</svg>
