<svg width="30" height="30" viewBox="0 0 30 30" fill="none" xmlns="http://www.w3.org/2000/svg">
<g clip-path="url(#clip0_6_47)">
<path d="M21.4624 30C21.2978 30.0009 21.1348 29.9694 20.9825 29.9072C20.8302 29.845 20.6917 29.7533 20.5749 29.6374L10.3624 19.425C9.78032 18.8444 9.31853 18.1547 9.00345 17.3954C8.68837 16.6361 8.52618 15.8221 8.52618 15C8.52618 14.1779 8.68837 13.3639 9.00345 12.6046C9.31853 11.8452 9.78032 11.1555 10.3624 10.575L20.5749 0.362487C20.6914 0.245939 20.8298 0.153488 20.982 0.0904128C21.1343 0.0273375 21.2975 -0.00512695 21.4624 -0.00512695C21.6272 -0.00512695 21.7904 0.0273375 21.9427 0.0904128C22.0949 0.153488 22.2333 0.245939 22.3499 0.362487C22.4664 0.479035 22.5589 0.617398 22.6219 0.769675C22.685 0.921952 22.7175 1.08516 22.7175 1.24999C22.7175 1.41481 22.685 1.57802 22.6219 1.7303C22.5589 1.88257 22.4664 2.02094 22.3499 2.13749L12.1374 12.35C11.4351 13.0531 11.0407 14.0062 11.0407 15C11.0407 15.9937 11.4351 16.9468 12.1374 17.65L22.3499 27.8625C22.467 27.9787 22.56 28.1169 22.6235 28.2692C22.6869 28.4216 22.7196 28.5849 22.7196 28.75C22.7196 28.915 22.6869 29.0783 22.6235 29.2307C22.56 29.383 22.467 29.5212 22.3499 29.6374C22.2331 29.7533 22.0945 29.845 21.9422 29.9072C21.7899 29.9694 21.6269 30.0009 21.4624 30Z" fill="#374957"/>
</g>
<defs>
<clipPath id="clip0_6_47">
<rect width="30" height="30" fill="white"/>
</clipPath>
</defs>
</svg>
