<svg width="25" height="25" viewBox="0 0 25 25" fill="none" xmlns="http://www.w3.org/2000/svg">
<g clip-path="url(#clip0_9_84)">
<path d="M24.2405 9.81131C22.6249 7.18006 18.9499 2.76547 12.4999 2.76547C6.04987 2.76547 2.37487 7.18006 0.759245 9.81131C0.259795 10.6191 -0.00476074 11.5501 -0.00476074 12.4998C-0.00476074 13.4496 0.259795 14.3806 0.759245 15.1884C2.37487 17.8196 6.04987 22.2342 12.4999 22.2342C18.9499 22.2342 22.6249 17.8196 24.2405 15.1884C24.7399 14.3806 25.0045 13.4496 25.0045 12.4998C25.0045 11.5501 24.7399 10.6191 24.2405 9.81131ZM22.4645 14.0978C21.077 16.354 17.9363 20.1509 12.4999 20.1509C7.06341 20.1509 3.92279 16.354 2.53529 14.0978C2.23855 13.6176 2.08138 13.0643 2.08138 12.4998C2.08138 11.9354 2.23855 11.3821 2.53529 10.9019C3.92279 8.64568 7.06341 4.84881 12.4999 4.84881C17.9363 4.84881 21.077 8.64151 22.4645 10.9019C22.7612 11.3821 22.9184 11.9354 22.9184 12.4998C22.9184 13.0643 22.7612 13.6176 22.4645 14.0978Z" fill="#374957"/>
<path d="M12.4998 7.2915C11.4697 7.2915 10.4627 7.59697 9.6062 8.16927C8.74969 8.74157 8.08213 9.555 7.68792 10.5067C7.29371 11.4584 7.19057 12.5056 7.39154 13.5159C7.5925 14.5262 8.08855 15.4543 8.81695 16.1827C9.54534 16.9111 10.4734 17.4071 11.4837 17.6081C12.494 17.8091 13.5412 17.7059 14.4929 17.3117C15.4446 16.9175 16.2581 16.2499 16.8304 15.3934C17.4027 14.5369 17.7081 13.5299 17.7081 12.4998C17.7065 11.119 17.1572 9.79521 16.1808 8.81882C15.2044 7.84242 13.8806 7.29316 12.4998 7.2915ZM12.4998 15.6248C11.8817 15.6248 11.2775 15.4416 10.7636 15.0982C10.2497 14.7548 9.84919 14.2667 9.61267 13.6957C9.37615 13.1247 9.31426 12.4964 9.43484 11.8902C9.55542 11.284 9.85305 10.7272 10.2901 10.2901C10.7271 9.85309 11.2839 9.55546 11.8901 9.43488C12.4963 9.3143 13.1247 9.37619 13.6957 9.61271C14.2667 9.84924 14.7548 10.2498 15.0981 10.7637C15.4415 11.2776 15.6248 11.8818 15.6248 12.4998C15.6248 13.3286 15.2956 14.1235 14.7095 14.7095C14.1235 15.2956 13.3286 15.6248 12.4998 15.6248Z" fill="#374957"/>
</g>
<defs>
<clipPath id="clip0_9_84">
<rect width="25" height="25" fill="white"/>
</clipPath>
</defs>
</svg>
